<svg xmlns="http://www.w3.org/2000/svg" width="160" height="36" fill="none">
  <path fill="#000" d="M5.0048 6.3333c4.0307 2.3277 6.7657 6.6895 6.7657 11.6928 0 4.986-2.7821 9.4039-6.7657 11.695V6.3333ZM1.789 34.3413c1.1521-.257 2.2071-.5875 3.2157-1.0267 2.9668-1.2925 5.4932-3.4325 7.2671-6.1559 1.7739-2.7233 2.7178-5.9107 2.715-9.1686 0-6.9286-4.1264-12.8484-9.9821-15.3778A29.0551 29.0551 0 0 0 1.789 1.6051v32.7362Zm19.8021-.167V1.8246h-3.2157v32.3497h3.2157Zm7.0329-16.1482c1.2478 1.2096 3.36 2.8598 3.36 6.0696 0 3.8664-3.1165 7.02-7.005 7.02v3.2616c5.6642 0 10.2214-4.6188 10.2214-10.2816 0-1.7618-.4314-3.4121-.9129-4.2725-.9585-1.944-2.1114-3.0614-3.3078-4.0694-2.0665-1.7597-2.7857-3.1522-2.7857-5.004a5.8904 5.8904 0 0 1 .4386-2.2442 5.853 5.853 0 0 1 1.2586-1.903 5.8019 5.8019 0 0 1 1.8863-1.2714 5.7647 5.7647 0 0 1 2.2257-.4451V1.641c-4.99 0-9.0235 4.0687-9.0235 9.1094 0 2.2723.9607 4.6548 3.645 7.2763l-.0007-.0007ZM50.3462 4.9408V1.641c-1.1528.293-2.2071.6236-3.1671 1.008-5.8543 2.5294-10.03 8.4493-10.03 15.3778 0 6.8364 4.1285 12.7584 10.03 15.3223.9607.4421 2.0143.7704 3.1671 1.0289v-3.3552c-1.295-.3845-2.1571-.8791-3.1671-1.3017-4.0293-2.2911-6.815-6.709-6.815-11.6943 0-5.004 2.7357-9.3658 6.8142-11.6935 1.0108-.6235 2.1601-.9713 3.1679-1.3925Zm15.4857-3.5014c-9.0743 0-16.4164 7.4233-16.4164 16.5874 0 9.1095 7.3421 16.5327 16.4164 16.5327 9.0686 0 16.4107-7.4232 16.4107-16.5327-.0007-9.1642-7.3421-16.5874-16.4107-16.5874Zm0 3.2444c7.2922 0 13.195 5.9745 13.195 13.343 0 7.3678-5.9028 13.2898-13.195 13.2898-7.2964 0-13.1978-5.922-13.1978-13.2905 0-7.3678 5.9014-13.3423 13.1978-13.3423Zm23.0143.2016c1.8757 0 3.4093 1.5573 3.4093 3.4452 0 1.8878-1.5336 3.3912-3.4093 3.3912V4.8854Zm-.625-3.0607h-2.5886V34.378c1.0558 0 2.1122-.1749 3.2136-.4399 5.6157-1.4688 9.7922-6.6917 9.7922-12.906 0-3.8304-1.6308-7.2763-4.1765-9.6955a6.388 6.388 0 0 0 .7693-3.0053c0-3.5928-2.6893-6.5067-7.01-6.5067Zm3.9843 11.8396c2.1121 2.1816 3.2171 4.747 3.2171 7.4592 0 4.418-2.7857 8.1576-6.5764 9.5148V14.7825c1.155-.1836 2.1607-.4392 3.3593-1.1182Zm22.7785 20.51v-6.4512h1.579v-3.0615h-1.579V9.394c0-2.8591-.289-4.032-1.198-5.3885-1.163-1.6495-2.975-2.566-5.239-2.566-2.49 0-4.591 1.2643-5.656 3.3912-.529 1.1174-.721 2.1808-.721 4.8016v15.0293h-1.585v3.0615h1.585v6.4512h3.218v-6.4512h6.385v6.4512h3.211Zm-3.211-9.5127h-6.385V8.093c0-2.1996 1.341-3.6475 3.358-3.6475 1.866 0 3.027 1.4112 3.027 3.5927v16.6234Zm10.775-19.7762c1.868 0 3.41 1.558 3.41 3.4459 0 1.8871-1.542 3.3905-3.41 3.3905V4.8854Zm-.617-3.0607h-2.596V34.378c1.056 0 2.108-.1749 3.213-.4399 5.621-1.4688 9.795-6.6917 9.795-12.906 0-3.8304-1.633-7.2763-4.174-9.6955.494-.924.755-1.9559.762-3.0053 0-3.5928-2.682-6.5067-7-6.5067Zm3.969 11.8396c2.124 2.1816 3.23 4.747 3.23 7.4592 0 4.418-2.79 8.1576-6.582 9.5148V14.7825c1.16-.1836 2.157-.4392 3.352-1.1182Zm19.576 20.51V31.115h-6.383V11.3733h8.015v-3.042h-8.015v-3.446h6.383V1.8248h-9.598v6.5066h-1.596v3.042h1.596v22.801h9.598Zm6.894-16.1482c1.229 1.2096 3.352 2.8598 3.352 6.0696 0 3.8664-3.118 7.02-7.001 7.02v3.2616c5.66 0 10.212-4.6188 10.212-10.2816 0-1.7618-.432-3.4121-.905-4.2725-.961-1.944-2.125-3.0614-3.321-4.0694-2.069-1.7597-2.773-3.1522-2.773-5.004 0-3.2436 2.594-5.8644 5.804-5.8644V1.641c-4.99 0-9.017 4.0687-9.017 9.1094 0 2.2723.944 4.6541 3.649 7.2756Z"/>
</svg>